grf
version=1
nRows=14
nColumns=46
inDegrees=yes
endheader
time	ground_force_1_vx	ground_force_1_vy	ground_force_1_vz	ground_force_1_px	ground_force_1_py	ground_force_1_pz	ground_moment_1_mx	ground_moment_1_my	ground_moment_1_mz	ground_force_2_vx	ground_force_2_vy	ground_force_2_vz	ground_force_2_px	ground_force_2_py	ground_force_2_pz	ground_moment_2_mx	ground_moment_2_my	ground_moment_2_mz	ground_force_3_vx	ground_force_3_vy	ground_force_3_vz	ground_force_3_px	ground_force_3_py	ground_force_3_pz	ground_moment_3_mx	ground_moment_3_my	ground_moment_3_mz	ground_force_4_vx	ground_force_4_vy	ground_force_4_vz	ground_force_4_px	ground_force_4_py	ground_force_4_pz	ground_moment_4_mx	ground_moment_4_my	ground_moment_4_mz	ground_force_5_vx	ground_force_5_vy	ground_force_5_vz	ground_force_5_px	ground_force_5_py	ground_force_5_pz	ground_moment_5_mx	ground_moment_5_my	ground_moment_5_mz
1.242500	0.000000	0.000000	0.000000	0.000000	0.000000	0.000000	0.000000	0.000000	0.000000	0.000000	0.000000	0.000000	0.000000	0.000000	0.000000	0.000000	0.000000	0.000000	0.000000	0.000000	0.000000	0.000000	0.000000	0.000000	0.000000	0.000000	0.000000	-3.990025	582.577024	-26.489153	0.209712	0.000000	-0.886077	0.000000	11.165084	0.000000	0.585074	575.416791	27.480604	0.252433	0.000000	-1.587725	-0.000000	-9.131925	-0.000000
1.243000	0.000000	0.000000	0.000000	0.000000	0.000000	0.000000	0.000000	0.000000	0.000000	0.000000	0.000000	0.000000	0.000000	0.000000	0.000000	0.000000	0.000000	0.000000	0.000000	0.000000	0.000000	0.000000	0.000000	0.000000	0.000000	0.000000	0.000000	-3.971940	582.800801	-26.269473	0.209682	0.000000	-0.886135	0.000000	11.174392	0.000000	0.569371	575.883089	27.336637	0.252429	0.000000	-1.587689	-0.000000	-9.148635	-0.000000
1.243500	0.000000	0.000000	0.000000	0.000000	0.000000	0.000000	0.000000	0.000000	0.000000	0.000000	0.000000	0.000000	0.000000	0.000000	0.000000	0.000000	0.000000	0.000000	0.000000	0.000000	0.000000	0.000000	0.000000	0.000000	0.000000	0.000000	0.000000	-3.954532	583.024315	-26.049519	0.209652	0.000000	-0.886192	0.000000	11.183757	0.000000	0.552985	576.351798	27.194503	0.252426	0.000000	-1.587653	-0.000000	-9.165306	-0.000000
1.244000	0.000000	0.000000	0.000000	0.000000	0.000000	0.000000	0.000000	0.000000	0.000000	0.000000	0.000000	0.000000	0.000000	0.000000	0.000000	0.000000	0.000000	0.000000	0.000000	0.000000	0.000000	0.000000	0.000000	0.000000	0.000000	0.000000	0.000000	-3.937780	583.247530	-25.829310	0.209623	0.000000	-0.886250	0.000000	11.193181	0.000000	0.535937	576.822746	27.054267	0.252422	0.000000	-1.587617	-0.000000	-9.181938	-0.000000
1.244500	0.000000	0.000000	0.000000	0.000000	0.000000	0.000000	0.000000	0.000000	0.000000	0.000000	0.000000	0.000000	0.000000	0.000000	0.000000	0.000000	0.000000	0.000000	0.000000	0.000000	0.000000	0.000000	0.000000	0.000000	0.000000	0.000000	0.000000	-3.921661	583.470400	-25.608872	0.209593	0.000000	-0.886307	0.000000	11.202666	0.000000	0.518248	577.295750	26.915994	0.252419	0.000000	-1.587582	-0.000000	-9.198528	-0.000000
1.245000	0.000000	0.000000	0.000000	0.000000	0.000000	0.000000	0.000000	0.000000	0.000000	0.000000	0.000000	0.000000	0.000000	0.000000	0.000000	0.000000	0.000000	0.000000	0.000000	0.000000	0.000000	0.000000	0.000000	0.000000	0.000000	0.000000	0.000000	-3.906152	583.692869	-25.388241	0.209563	0.000000	-0.886365	0.000000	11.212214	0.000000	0.499930	577.770607	26.779747	0.252415	0.000000	-1.587547	-0.000000	-9.215075	-0.000000
1.245500	0.000000	0.000000	0.000000	0.000000	0.000000	0.000000	0.000000	0.000000	0.000000	0.000000	0.000000	0.000000	0.000000	0.000000	0.000000	0.000000	0.000000	0.000000	0.000000	0.000000	0.000000	0.000000	0.000000	0.000000	0.000000	0.000000	0.000000	-3.891229	583.914880	-25.167458	0.209533	0.000000	-0.886422	0.000000	11.221826	0.000000	0.480993	578.247103	26.645594	0.252412	0.000000	-1.587512	-0.000000	-9.231573	-0.000000
1.246000	0.000000	0.000000	0.000000	0.000000	0.000000	0.000000	0.000000	0.000000	0.000000	0.000000	0.000000	0.000000	0.000000	0.000000	0.000000	0.000000	0.000000	0.000000	0.000000	0.000000	0.000000	0.000000	0.000000	0.000000	0.000000	0.000000	0.000000	-3.876868	584.136370	-24.946574	0.209504	0.000000	-0.886479	0.000000	11.231505	0.000000	0.461447	578.725013	26.513600	0.252409	0.000000	-1.587477	-0.000000	-9.248018	-0.000000
1.246500	0.000000	0.000000	0.000000	0.000000	0.000000	0.000000	0.000000	0.000000	0.000000	0.000000	0.000000	0.000000	0.000000	0.000000	0.000000	0.000000	0.000000	0.000000	0.000000	0.000000	0.000000	0.000000	0.000000	0.000000	0.000000	0.000000	0.000000	-3.863046	584.357284	-24.725641	0.209474	0.000000	-0.886536	0.000000	11.241254	0.000000	0.441305	579.204098	26.383832	0.252406	0.000000	-1.587443	-0.000000	-9.264403	-0.000000
1.247000	0.000000	0.000000	0.000000	0.000000	0.000000	0.000000	0.000000	0.000000	0.000000	0.000000	0.000000	0.000000	0.000000	0.000000	0.000000	0.000000	0.000000	0.000000	0.000000	0.000000	0.000000	0.000000	0.000000	0.000000	0.000000	0.000000	0.000000	-3.849747	584.577567	-24.504720	0.209445	0.000000	-0.886594	0.000000	11.251076	0.000000	0.420576	579.684112	26.256353	0.252403	0.000000	-1.587409	-0.000000	-9.280721	-0.000000
1.247500	0.000000	0.000000	0.000000	0.000000	0.000000	0.000000	0.000000	0.000000	0.000000	0.000000	0.000000	0.000000	0.000000	0.000000	0.000000	0.000000	0.000000	0.000000	0.000000	0.000000	0.000000	0.000000	0.000000	0.000000	0.000000	0.000000	0.000000	-3.836958	584.797159	-24.283877	0.209415	0.000000	-0.886651	0.000000	11.260973	0.000000	0.399266	580.164803	26.131221	0.252401	0.000000	-1.587375	-0.000000	-9.296966	-0.000000
1.248000	0.000000	0.000000	0.000000	0.000000	0.000000	0.000000	0.000000	0.000000	0.000000	0.000000	0.000000	0.000000	0.000000	0.000000	0.000000	0.000000	0.000000	0.000000	0.000000	0.000000	0.000000	0.000000	0.000000	0.000000	0.000000	0.000000	0.000000	-3.824676	585.015989	-24.063181	0.209386	0.000000	-0.886708	0.000000	11.270949	0.000000	0.377369	580.645913	26.008492	0.252399	0.000000	-1.587342	-0.000000	-9.313133	-0.000000
1.248500	0.000000	0.000000	0.000000	0.000000	0.000000	0.000000	0.000000	0.000000	0.000000	0.000000	0.000000	0.000000	0.000000	0.000000	0.000000	0.000000	0.000000	0.000000	0.000000	0.000000	0.000000	0.000000	0.000000	0.000000	0.000000	0.000000	0.000000	-3.812902	585.233980	-23.842701	0.209357	0.000000	-0.886765	0.000000	11.281005	0.000000	0.354871	581.127174	25.888220	0.252397	0.000000	-1.587309	-0.000000	-9.329216	-0.000000
1.249000	0.000000	0.000000	0.000000	0.000000	0.000000	0.000000	0.000000	0.000000	0.000000	0.000000	0.000000	0.000000	0.000000	0.000000	0.000000	0.000000	0.000000	0.000000	0.000000	0.000000	0.000000	0.000000	0.000000	0.000000	0.000000	0.000000	0.000000	-3.801647	585.451063	-23.622501	0.209329	0.000000	-0.886821	0.000000	11.291145	0.000000	0.331748	581.608305	25.770450	0.252395	0.000000	-1.587276	-0.000000	-9.345209	-0.000000
